{
	"asset":{
		"version":"2.0",
		"generator":"Maxon Cinema 4D 2026.1.2 (#200000219)"
	},
	"scenes":[{
		"nodes":[0]
	}],
	"nodes":[{
		"name":"Cube",
		"mesh":0
	}],
	"meshes":[{
		"name":"Cube",
		"primitives":[{
			"attributes":{
				"POSITION":1,
				"NORMAL":2,
				"TEXCOORD_0":3
			},
			"indices":0
		}]
	}],
	"accessors":[{
		"bufferView":0,
		"min":[0],
		"type":"SCALAR",
		"componentType":5123,
		"count":78,
		"byteOffset":0,
		"max":[29]
	},
	{
		"bufferView":1,
		"min":[-1.0,
		-1.0,
		-1.0],
		"type":"VEC3",
		"componentType":5126,
		"count":30,
		"byteOffset":0,
		"max":[1.0,
		1.0,
		1.0]
	},
	{
		"bufferView":1,
		"min":[0.0,
		0.0,
		0.0],
		"type":"VEC3",
		"componentType":5126,
		"count":30,
		"byteOffset":12,
		"max":[1.0,
		1.0,
		1.0]
	},
	{
		"bufferView":1,
		"min":[0.0008391938754357398,
		0.0008391938172280788],
		"type":"VEC2",
		"componentType":5126,
		"count":30,
		"byteOffset":24,
		"max":[0.9991607666015625,
		0.9907798767089844]
	}],
	"bufferViews":[{
		"buffer":0,
		"byteOffset":0,
		"byteLength":156,
		"target":34963
	},
	{
		"buffer":0,
		"byteOffset":156,
		"byteLength":960,
		"target":34962,
		"byteStride":32
	}],
	"buffers":[{
		"uri":"data:application/octet-stream;base64,",
		"byteLength":1116
	}]
}